<?xml version="1.0" standalone="no"?>
<!DOCTYPE svg PUBLIC "-//W3C//DTD SVG 20010904//EN"
 "http://www.w3.org/TR/2001/REC-SVG-20010904/DTD/svg10.dtd">
<svg version="1.0" xmlns="http://www.w3.org/2000/svg"
 width="200.000000pt" height="200.000000pt" viewBox="0 0 200.000000 200.000000"
 preserveAspectRatio="xMidYMid meet">
<metadata>
Created by potrace 1.10, written by Peter Selinger 2001-2011
</metadata>
<g transform="translate(0.000000,200.000000) scale(0.100000,-0.100000)"
fill="#ffffff" stroke="none">
<path d="M94 1776 l-34 -34 0 -592 0 -592 31 -29 31 -29 352 0 351 0 0 -135 0
-134 -65 -3 c-50 -2 -65 -7 -65 -18 0 -13 41 -15 305 -15 264 0 305 2 305 15
0 11 -15 16 -65 18 l-65 3 0 134 0 135 353 0 354 0 29 29 29 29 0 592 0 592
-34 34 -34 34 -872 0 -872 0 -34 -34z m1780 -27 l26 -20 0 -575 c0 -561 0
-574 -20 -594 -20 -20 -33 -20 -880 -20 -847 0 -860 0 -880 20 -20 20 -20 33
-20 594 l0 575 26 20 c27 21 32 21 874 21 842 0 847 0 874 -21z m-744 -1384
l0 -135 -130 0 -130 0 0 135 0 135 130 0 130 0 0 -135z"/>
<path d="M1124 1502 c-15 -11 -275 -662 -272 -681 10 -53 39 1 165 314 72 182
132 338 133 347 0 20 -12 29 -26 20z"/>
<path d="M490 1285 c-146 -81 -205 -119 -205 -132 0 -12 58 -50 204 -131 180
-100 206 -112 219 -99 17 18 11 22 -215 147 l-151 84 189 104 c104 57 189 107
189 112 0 4 -6 12 -13 18 -9 8 -65 -19 -217 -103z"/>
<path d="M1290 1385 c-7 -9 -10 -18 -6 -22 3 -4 89 -52 190 -108 l184 -101
-151 -84 c-226 -125 -232 -129 -215 -147 13 -13 39 -1 219 99 115 64 205 121
207 130 3 14 -39 39 -409 244 -4 2 -12 -3 -19 -11z"/>
</g>
</svg>
